<svg id="Layer_1" data-name="Layer 1" xmlns="http://www.w3.org/2000/svg" viewBox="0 0 100 300"><defs><style>.cls-1{fill:#fafafa;}.cls-2{fill:#f15a24;}.cls-3,.cls-4{fill:#fff;}.cls-3{opacity:0.28;}.cls-5{fill:#0071bc;}.cls-6{fill:#ffc610;}</style></defs><rect class="cls-1" width="100" height="300"/><path class="cls-2" d="M70.48,82.28,50.8,86.54a2.55,2.55,0,0,1-1.1,0L30,82.28a2.61,2.61,0,0,1-2-2.17L19.21,22.42a2.63,2.63,0,0,1,2.59-3H78.7a2.63,2.63,0,0,1,2.59,3L72.52,80.11A2.61,2.61,0,0,1,70.48,82.28Z" transform="translate(0)"/><path class="cls-3" d="M67.62,76.31,50.25,79.88v-54H74.4a2.2,2.2,0,0,1,2.18,2.53L69.92,73.88A2.92,2.92,0,0,1,67.62,76.31Z" transform="translate(0)"/><path class="cls-4" d="M37.42,41.16h-3.3v-5h-2.3v5h-3.3V28.37h3.3v4.88h2.3V28.37h3.3Z" transform="translate(0)"/><path class="cls-4" d="M47.9,31.3H45.17v9.86h-3.3V31.3H39.13V28.37H47.9Z" transform="translate(0)"/><path class="cls-4" d="M62,41.16H58.75V35.48L56,40.07h-.43l-2.72-4.62v5.71H49.61V28.37h2.58L55.8,34.9l3.58-6.53H62Z" transform="translate(0)"/><path class="cls-4" d="M71.52,41.16H64.09V28.37h3.3v9.86h4.13Z" transform="translate(0)"/><path class="cls-4" d="M59.23,68.66c0,3.22-1.78,4.41-4.93,4.41H41.91V66.66H52V62.15H41.91l.77-17H58.15v6.44H49.29l-.24,4.2h5.21c3.19,0,5,1.26,5,4.59Z" transform="translate(0)"/><path class="cls-5" d="M70.23,182.28l-19.68,4.26a2.55,2.55,0,0,1-1.1,0l-19.68-4.26a2.61,2.61,0,0,1-2-2.17L19,122.42a2.63,2.63,0,0,1,2.59-3h56.9a2.63,2.63,0,0,1,2.59,3l-8.77,57.69A2.61,2.61,0,0,1,70.23,182.28Z" transform="translate(0)"/><path class="cls-3" d="M67.37,176.31,50,179.88v-54H74.15a2.21,2.21,0,0,1,2.18,2.53l-6.66,45.45A2.92,2.92,0,0,1,67.37,176.31Z" transform="translate(0)"/><path class="cls-4" d="M43.66,143.81h-6c-1.64,0-2.46-.61-2.46-2.26v-9.84c0-1.65.82-2.28,2.46-2.28h6v3.29l-4.76,0v7.78h4.76Z" transform="translate(0)"/><path class="cls-4" d="M54.24,141.55c0,1.65-.9,2.26-2.52,2.26H45.65v-3.29h4.88v-2.31H48.16c-2,0-2.51-1-2.51-2.25v-4.17c0-1.71.89-2.36,2.52-2.36h5.71v3.29H49.36v2.2H51.7c1.73,0,2.54.72,2.54,2.45Z" transform="translate(0)"/><path class="cls-4" d="M65,141.55c0,1.65-.89,2.26-2.52,2.26H56.42v-3.29H61.3v-2.31H58.92c-2,0-2.5-1-2.5-2.25v-4.17c0-1.71.88-2.36,2.52-2.36h5.71v3.29H60.13v2.2h2.34c1.73,0,2.53.72,2.53,2.45Z" transform="translate(0)"/><path class="cls-4" d="M57.65,169c0,2.51-1.65,4-4.41,4H42V167.4h9.24v-4H45.62v-5.65h5.64v-3.81H42V148.3H53.27c2.83,0,4.38,1.11,4.38,4.06v5a3,3,0,0,1-2.14,3.2v.06c1.27.22,2.14,1.05,2.14,2.91Z" transform="translate(0)"/><rect class="cls-6" x="20.5" y="220.5" width="59" height="59" rx="9.99"/><path d="M69.51,222.5a8,8,0,0,1,8,8v39a8,8,0,0,1-8,8h-39a8,8,0,0,1-8-8v-39a8,8,0,0,1,8-8h39m0-4h-39a12,12,0,0,0-12,12v39a12,12,0,0,0,12,12h39a12,12,0,0,0,12-12v-39a12,12,0,0,0-12-12Z" transform="translate(0)"/><path d="M56,270.18c0,2.85-1.5,3.9-4.23,3.9H44.65c-2.73,0-4.2-1.05-4.2-3.9v-4.53h6.18v2.94h3.24V250.12H56Z" transform="translate(0)"/><path d="M74.28,270.3c0,2.76-1.5,3.78-4.2,3.78H60v-5.49H68.1v-3.84h-4c-3.39,0-4.17-1.65-4.17-3.75v-7c0-2.84,1.47-3.92,4.2-3.92h9.51v5.48H66.15v3.66h3.9c2.88,0,4.23,1.2,4.23,4.08Z" transform="translate(0)"/></svg>