<svg id="Layer_1" data-name="Layer 1" xmlns="http://www.w3.org/2000/svg" viewBox="0 0 100 300"><defs><style>.cls-1{fill:#fafafa;}.cls-2{fill:#61dafb;}.cls-3{fill:#1b1f23;}.cls-3,.cls-5{fill-rule:evenodd;}.cls-4{fill:#252f3e;}.cls-5{fill:#f90;}</style></defs><rect class="cls-1" width="100" height="300"/><path class="cls-2" d="M14.35,50c0,4.74,5.93,9.24,15,12-2.1,9.28-1.16,16.66,2.95,19a6.36,6.36,0,0,0,3.27.82V78.6a3.45,3.45,0,0,1-1.66-.38c-2-1.14-2.85-5.47-2.18-11a41.91,41.91,0,0,1,.75-4.28,70.46,70.46,0,0,0,9.26,1.59,72.35,72.35,0,0,0,6.07,7.29c-4.76,4.42-9.22,6.84-12.26,6.84v3.25h0c4,0,9.27-2.86,14.57-7.82C55.46,79,60.71,81.8,64.73,81.8V78.55c-3,0-7.5-2.41-12.26-6.8a68.27,68.27,0,0,0,6-7.27,67.38,67.38,0,0,0,9.27-1.61,41.64,41.64,0,0,1,.76,4.23c.69,5.57-.16,9.91-2.13,11.06a3.23,3.23,0,0,1-1.67.38v3.25h0A6.43,6.43,0,0,0,68,81c4.1-2.36,5-9.73,2.9-19,9.08-2.8,15-7.28,15-12s-5.93-9.23-15-12c2.1-9.27,1.16-16.65-3-19a6.46,6.46,0,0,0-3.28-.81c-4,0-9.26,2.86-14.57,7.82C44.76,21,39.51,18.2,35.5,18.2a6.54,6.54,0,0,0-3.3.81c-4.1,2.37-5,9.73-2.9,19C20.25,40.77,14.35,45.27,14.35,50Zm19,9.73c.54-1.88,1.21-3.82,2-5.76.59,1.17,1.22,2.33,1.91,3.5s1.38,2.31,2.1,3.41C37.25,60.57,35.25,60.19,33.34,59.72ZM40,44.19c1.14-2,2.3-3.84,3.51-5.57,2.18-.19,4.38-.3,6.6-.3s4.4.11,6.56.28q1.81,2.61,3.53,5.54c1.11,1.91,2.11,3.85,3,5.81-.9,1.95-1.92,3.91-3,5.82s-2.3,3.83-3.51,5.57q-3.27.28-6.59.29c-2.21,0-4.41-.1-6.57-.28q-1.81-2.6-3.53-5.54C38.92,53.9,37.92,52,37,50,37.92,48.05,38.92,46.1,40,44.19Zm-4.71,1.89c-.79-1.95-1.46-3.91-2-5.8,1.91-.47,3.93-.86,6-1.17-.71,1.12-1.43,2.28-2.1,3.46S35.9,44.92,35.31,46.08ZM50.1,30.52a60.46,60.46,0,0,1,4,4.67c-1.31-.06-2.65-.1-4-.1s-2.73,0-4.06.1A56.26,56.26,0,0,1,50.1,30.52ZM61,39.11c2.07.31,4.07.69,6,1.15-.54,1.89-1.21,3.83-2,5.77-.6-1.17-1.23-2.34-1.91-3.51S61.66,40.22,61,39.11ZM50.17,69.46c-1.36-1.4-2.71-3-4.06-4.66,1.32.06,2.66.1,4,.1s2.72,0,4-.1A57.68,57.68,0,0,1,50.17,69.46ZM61,60.87c.72-1.12,1.43-2.27,2.1-3.45s1.3-2.34,1.9-3.5a60.66,60.66,0,0,1,2,5.8C65.06,60.17,63.05,60.57,61,60.87Zm13.2-18.26c5.17,2.2,8.51,5.09,8.51,7.38s-3.34,5.2-8.51,7.38c-1.25.54-2.62,1-4,1.48A69.39,69.39,0,0,0,66.84,50a69.34,69.34,0,0,0,3.24-8.84C71.52,41.58,72.89,42.07,74.16,42.61ZM66.32,21.77c2,1.14,2.84,5.47,2.17,11a42.09,42.09,0,0,1-.75,4.29,70.46,70.46,0,0,0-9.26-1.59,71.42,71.42,0,0,0-6.06-7.29c4.75-4.42,9.21-6.84,12.25-6.84A3.44,3.44,0,0,1,66.32,21.77ZM31.72,32.88c-.69-5.57.16-9.9,2.13-11.05a3.25,3.25,0,0,1,1.67-.38c3,0,7.5,2.41,12.26,6.8a68.27,68.27,0,0,0-6,7.27,67.38,67.38,0,0,0-9.27,1.61A39.37,39.37,0,0,1,31.72,32.88ZM26.1,42.61c1.26-.54,2.63-1,4-1.47A70.81,70.81,0,0,0,33.42,50a68.82,68.82,0,0,0-3.23,8.84c-1.45-.45-2.82-1-4.1-1.49-5.17-2.2-8.51-5.09-8.51-7.38S20.94,44.8,26.1,42.61Z" transform="translate(0)"/><path class="cls-2" d="M64.74,81.8Z" transform="translate(0)"/><circle class="cls-2" cx="50.14" cy="49.99" r="6.67"/><path class="cls-2" d="M35.61,81.85Z" transform="translate(0)"/><path class="cls-3" d="M50.13,113.82a37.1,37.1,0,0,0-11.74,72.29c1.86.32,2.55-.79,2.55-1.76s0-3.81,0-6.91c-9.32,1.71-11.73-2.27-12.48-4.36-.41-1.07-2.22-4.36-3.8-5.24-1.3-.7-3.15-2.41,0-2.46,2.92,0,5,2.69,5.7,3.8,3.34,5.62,8.67,4,10.8,3.06a7.82,7.82,0,0,1,2.37-5c-8.26-.92-16.88-4.12-16.88-18.31a14.45,14.45,0,0,1,3.8-10,13.33,13.33,0,0,1,.37-9.83s3.11-1,10.2,3.8a35,35,0,0,1,18.55,0c7.1-4.82,10.2-3.8,10.2-3.8a13.33,13.33,0,0,1,.37,9.83,14.34,14.34,0,0,1,3.81,10c0,14.23-8.67,17.39-16.93,18.31,1.35,1.16,2.51,3.39,2.51,6.87,0,5-.05,8.95-.05,10.2,0,1,.69,2.13,2.55,1.76a37.12,37.12,0,0,0-11.82-72.29Z" transform="translate(0)"/><path class="cls-4" d="M35.06,248.46a6.68,6.68,0,0,0,.25,2,12.12,12.12,0,0,0,.72,1.62.92.92,0,0,1,.16.52.88.88,0,0,1-.43.68l-1.42.95a1.09,1.09,0,0,1-.58.2,1,1,0,0,1-.68-.32,7.85,7.85,0,0,1-.81-1.06c-.23-.38-.45-.81-.7-1.33a8.32,8.32,0,0,1-6.63,3.11,6.16,6.16,0,0,1-4.5-1.62,6.36,6.36,0,0,1,.38-9,8.22,8.22,0,0,1,5.52-1.76,18.22,18.22,0,0,1,2.39.18c.84.12,1.69.3,2.59.5v-1.65a5,5,0,0,0-1.06-3.6,5.16,5.16,0,0,0-3.67-1,10.33,10.33,0,0,0-2.43.29,18.21,18.21,0,0,0-2.44.77,5.18,5.18,0,0,1-.79.29,1.18,1.18,0,0,1-.36.07c-.31,0-.47-.22-.47-.7v-1.1a1.37,1.37,0,0,1,.16-.79,1.53,1.53,0,0,1,.63-.47,12.65,12.65,0,0,1,2.84-1,13.72,13.72,0,0,1,3.51-.43c2.69,0,4.65.61,5.91,1.83S35,238.67,35,241.15v7.31Zm-9.15,3.42a7.37,7.37,0,0,0,2.33-.4A5,5,0,0,0,30.38,250a3.46,3.46,0,0,0,.76-1.44,7.81,7.81,0,0,0,.23-2v-.95a20.82,20.82,0,0,0-2.08-.38,16.94,16.94,0,0,0-2.11-.13,5.19,5.19,0,0,0-3.36.9,3.22,3.22,0,0,0,2.09,5.81ZM44,254.32a1.24,1.24,0,0,1-.85-.23,1.9,1.9,0,0,1-.48-.88l-5.29-17.42a3.79,3.79,0,0,1-.21-.9.5.5,0,0,1,.54-.57h2.21a1.24,1.24,0,0,1,.88.23,1.77,1.77,0,0,1,.45.88l3.79,14.92,3.51-14.92a1.62,1.62,0,0,1,.43-.88,1.52,1.52,0,0,1,.9-.23H51.7a1.33,1.33,0,0,1,.9.23,1.5,1.5,0,0,1,.43.88l3.56,15.1,3.9-15.1a1.84,1.84,0,0,1,.45-.88,1.43,1.43,0,0,1,.88-.23h2.09a.51.51,0,0,1,.57.57,2.8,2.8,0,0,1,0,.36,3.2,3.2,0,0,1-.16.56l-5.43,17.42a1.68,1.68,0,0,1-.47.88,1.4,1.4,0,0,1-.86.23H55.57a1.35,1.35,0,0,1-.9-.23,1.6,1.6,0,0,1-.43-.9l-3.49-14.54-3.47,14.52a1.75,1.75,0,0,1-.43.9,1.37,1.37,0,0,1-.9.23Zm29,.6a15,15,0,0,1-3.47-.4,10.72,10.72,0,0,1-2.59-.9,1.69,1.69,0,0,1-.7-.63,1.63,1.63,0,0,1-.13-.64v-1.14c0-.48.18-.7.52-.7a1.39,1.39,0,0,1,.4.06l.56.23a12.18,12.18,0,0,0,2.48.79,13.64,13.64,0,0,0,2.69.27,6.14,6.14,0,0,0,3.29-.74A2.45,2.45,0,0,0,77.19,249a2.15,2.15,0,0,0-.61-1.57,5.63,5.63,0,0,0-2.28-1.18l-3.26-1a6.83,6.83,0,0,1-3.61-2.3,5.38,5.38,0,0,1-1.13-3.27,5.09,5.09,0,0,1,.61-2.5,6,6,0,0,1,1.62-1.85,7.19,7.19,0,0,1,2.35-1.17,9.84,9.84,0,0,1,2.84-.38,11,11,0,0,1,1.51.09c.52.07,1,.16,1.46.25s.88.22,1.29.36a4.88,4.88,0,0,1,.94.4,1.9,1.9,0,0,1,.68.57,1.16,1.16,0,0,1,.2.74v1.06c0,.47-.18.72-.52.72a2.31,2.31,0,0,1-.85-.27,10.28,10.28,0,0,0-4.33-.88,5.82,5.82,0,0,0-3,.63,2.18,2.18,0,0,0-1.06,2,2.14,2.14,0,0,0,.68,1.6,6.76,6.76,0,0,0,2.48,1.24l3.2,1a6.84,6.84,0,0,1,3.49,2.17,5.08,5.08,0,0,1,1,3.15,5.74,5.74,0,0,1-.59,2.62,6,6,0,0,1-1.64,2,7.27,7.27,0,0,1-2.5,1.26A10.65,10.65,0,0,1,73,254.92Z" transform="translate(0)"/><path class="cls-5" d="M77.23,265.88c-7.41,5.47-18.18,8.38-27.45,8.38a49.64,49.64,0,0,1-33.51-12.78c-.7-.63-.07-1.48.76-1a67.56,67.56,0,0,0,33.54,8.9,66.81,66.81,0,0,0,25.58-5.23C77.39,263.6,78.45,265,77.23,265.88Z" transform="translate(0)"/><path class="cls-5" d="M80.32,262.36c-.95-1.22-6.26-.58-8.68-.29-.72.09-.83-.54-.18-1,4.24-3,11.21-2.11,12-1.12s-.23,8-4.2,11.31c-.6.52-1.19.25-.92-.43C79.26,268.58,81.27,263.56,80.32,262.36Z" transform="translate(0)"/></svg>